# xmcd CD database file
#
# Track frame offsets:
#	150
#	16802
#	44785
#	61882
#	77782
#	95525
#	111197
#	126017
#	150147
#	162277
#	179415
#	200145
#	217792
#	243930
#	261649
#	286551
#	304379
#
# Disc length: 4324 seconds
#
# Revision: 3
# Processed by: cddbd v1.5.2PL0 Copyright (c) Steve Scherf et al.
# Submitted via: CDex 1.51
#
DISCID=e810e211
DTITLE=Cannonball Adderley - Cannonball Adderley The Complete Albums Collection 1955-1958, Disc 3
DYEAR=2016
DGENRE=Jazz
TTITLE0=another kind of soul
TTITLE1=miss jackie's delight
TTITLE2=spring is here 
TTITLE3=tribute to brownie
TTITLE4=spectacular
TTITLE5=jeanie
TTITLE6=stella by starlight
TTITLE7=edie mclin
TTITLE8=cobbweb
TTITLE9=a foggy day
TTITLE10=hoppin' john
TTITLE11=18th century ballroom
TTITLE12=that funky train
TTITLE13=lover man (oh, where can you be?)
TTITLE14=I'll remember april
TTITLE15=porky
TTITLE16=the way you look tonight
EXTD=YEAR: 2016
EXTT0=
EXTT1=
EXTT2=
EXTT3=
EXTT4=
EXTT5=
EXTT6=
EXTT7=
EXTT8=
EXTT9=
EXTT10=
EXTT11=
EXTT12=
EXTT13=
EXTT14=
EXTT15=
EXTT16=
PLAYORDER=
